<?xml version="1.0" encoding="utf-8"?>
<!-- Generator: Adobe Illustrator 27.5.0, SVG Export Plug-In . SVG Version: 6.00 Build 0)  -->
<svg version="1.1" id="Layer_1" xmlns="http://www.w3.org/2000/svg" xmlns:xlink="http://www.w3.org/1999/xlink" x="0px" y="0px"
	 viewBox="0 0 4000 4000" style="enable-background:new 0 0 4000 4000;" xml:space="preserve">
<g>
	
	<g>
		<defs>
			<path id="SVGID_1_" d="M626.135,1972.441c0,0,155.127,582.031,553.578,838.18c398.456,256.148,1138.443,241.918,1471.439-91.077
				c333-332.995,365.002-658.946,300.618-1069.465c-64.384-410.518-196.724,171.51-196.724,171.51l-357.188,421.228l-398.455,59.768
				l-540.761-119.542l-537.917-276.07l-167.92-38.423C752.805,1868.551,685.919,1801.668,626.135,1972.441"/>
		</defs>
		<clipPath id="SVGID_00000101790750712766732430000001349231323366737551_">
			<use xlink:href="#SVGID_1_"  style="overflow:visible;"/>
		</clipPath>
		
			<linearGradient id="SVGID_00000092420737933476185680000004443026310046908580_" gradientUnits="userSpaceOnUse" x1="2134.1533" y1="3657.209" x2="1143.8221" y2="-1101.4513">
			<stop  offset="0" style="stop-color:#0000FF"/>
			<stop  offset="1" style="stop-color:#00FFFF"/>
		</linearGradient>
		
			<rect x="626.135" y="1239.561" style="clip-path:url(#SVGID_00000101790750712766732430000001349231323366737551_);fill:url(#SVGID_00000092420737933476185680000004443026310046908580_);" width="2390.02" height="1827.208"/>
	</g>
	<path style="opacity:0.3;fill-rule:evenodd;clip-rule:evenodd;fill:#01052D;" d="M626.135,1972.441c0,0,4.781,17.9,14.768,48.727
		c45.471-48.528,145.38-102.203,322.493,43.772c258.996,213.458,526.53,520.838,1007.521,520.838
		c455.023,0,797.943-229.257,1007.143-584.111c3.8-111.162-6.828-227.508-26.29-351.587
		c-64.384-410.518-196.724,171.51-196.724,171.51l-357.188,421.228l-398.455,59.768l-540.761-119.542l-537.917-276.07
		l-167.92-38.423C752.805,1868.551,685.919,1801.668,626.135,1972.441"/>
	<path style="fill-rule:evenodd;clip-rule:evenodd;fill:#020C6A;" d="M2242.648,2939.795
		c119.989-32.323,230.54-81.183,322.176-147.183c-155.831-59.892-272.892-169.229-342.014-299.335
		c0,0,278.92-51.232,495.225-256.152c185.885-176.098,266.683-335.381,238.765-553.715c-1.55-10.663-3.162-21.378-4.85-32.16
		c-4.431-25.837-10.282-52.493-17.611-80.116c-1.644-6.193-3.133-12.264-4.545-18.279
		c-68.408-198.826-174.748,268.733-174.748,268.733l-357.188,421.228l-398.455,59.768l-540.761-119.542l-537.917-276.07
		l-167.92-38.423c0,0-66.886-66.883-126.67,103.89c81.124-69.733,128.084-82.54,250.466-17.08
		c122.384,65.462,281.767,219.152,435.457,335.845c143.536,108.978,263.989,167.977,454.61,220.895
		C1850.465,2707.51,2026.228,2879.389,2242.648,2939.795"/>
	<g>
		<defs>
			<path id="SVGID_00000156561871046684206400000013270287896447511696_" d="M626.135,1972.441c0,0-73.999-176.462,159.383-358.612
				c233.38-182.15,586.304,153.69,779.834,290.3c193.536,136.617,523.686,352.923,842.452,148.002
				c318.764-204.92,295.994-455.38,204.917-626.145c-91.073-170.768-196.375-236.228-384.218-236.228
				c-187.842,0-523.681-108.152-295.994-694.456c0,0,51.233,165.077,278.92,210.615c227.69,45.538,330.149-28.46,421.222,193.535
				c0,0,11.385-176.461,290.303-187.841c175.781-7.172,383.48-83.155,376.469-299.452c40.247,74.838,77.344,184.421,84.603,339.296
				c17.074,364.303-193.534,415.535-278.918,432.61c-85.384,17.078-244.767,108.152-170.768,387.07
				c73.999,278.92,0,461.075-216.304,665.991c-216.305,204.92-495.225,256.152-495.225,256.152
				c99.51,187.305,298.35,331.602,569.224,347.225c-440.295,289.947-876.991,17.618-1025.366-328.402
				c-190.621-52.918-311.074-111.917-454.61-220.895c-153.69-116.693-313.074-270.383-435.457-335.845
				C754.219,1889.901,707.259,1902.708,626.135,1972.441"/>
		</defs>
		<clipPath id="SVGID_00000149373572987846986640000000567192036225405342_">
			<use xlink:href="#SVGID_00000156561871046684206400000013270287896447511696_"  style="overflow:visible;"/>
		</clipPath>
		
			<linearGradient id="SVGID_00000100343681924258989180000001475738004736314282_" gradientUnits="userSpaceOnUse" x1="2289.3564" y1="3998.3052" x2="1771.355" y2="309.6374">
			<stop  offset="0" style="stop-color:#0000FF"/>
			<stop  offset="1" style="stop-color:#00FFFF"/>
		</linearGradient>
		
			<rect x="552.136" y="412.158" style="clip-path:url(#SVGID_00000149373572987846986640000000567192036225405342_);fill:url(#SVGID_00000100343681924258989180000001475738004736314282_);" width="2848.963" height="2718.29"/>
	</g>
	<path style="opacity:0.3;fill-rule:evenodd;clip-rule:evenodd;fill:#01052D;" d="M1722.159,2556.164
		c53.188,121.002,148.478,296.225,294.893,424.238c77.215-7.597,153.09-21.08,225.533-40.587
		c-194.22-54.228-355.68-198.257-447.31-368.471C1770.283,2567.121,1745.922,2562.037,1722.159,2556.164"/>
	<path style="opacity:0.3;fill-rule:evenodd;clip-rule:evenodd;fill:#01052D;" d="M1722.159,2556.164
		c23.763,5.874,48.124,10.957,73.116,15.18c-10.466-19.442-20.018-39.217-28.607-59.243c-24.941-6.927-48.68-13.952-71.429-21.185
		C1702.577,2509.959,1711.525,2531.976,1722.159,2556.164"/>
	<path style="opacity:0.3;fill-rule:evenodd;clip-rule:evenodd;fill:#01052D;" d="M2258.69,2552.649
		c70.772,103.71,174.648,189.453,306.13,239.987c13.35-9.615,26.298-19.592,38.814-29.938
		c-79.875-32.915-205.851-100.205-286.151-225.888C2298.174,2542.577,2278.575,2547.864,2258.69,2552.649"/>
	<path style="opacity:0.3;fill-rule:evenodd;clip-rule:evenodd;fill:#01052D;" d="M2258.69,2552.649
		c19.885-4.785,39.484-10.072,58.793-15.84c-11.77-18.425-22.561-38.108-32.08-59.117c-38.914,11.235-62.594,15.585-62.594,15.585
		C2233.615,2513.612,2245.586,2533.436,2258.69,2552.649"/>
</g>
</svg>
